<svg height="320" width="320" shapeRendering="crispEdges" viewBox="0 0 29 29" xmlns="http://www.w3.org/2000/svg" style="width: 320px; height: 320px;"><path fill="#fff" d="M0,0 h29v29H0z"></path><path fill="#000" d="M0 0h7v1H0zM8 0h4v1H8zM13 0h3v1H13zM17 0h2v1H17zM22,0 h7v1H22zM0 1h1v1H0zM6 1h1v1H6zM11 1h5v1H11zM17 1h3v1H17zM22 1h1v1H22zM28,1 h1v1H28zM0 2h1v1H0zM2 2h3v1H2zM6 2h1v1H6zM9 2h1v1H9zM11 2h1v1H11zM13 2h2v1H13zM19 2h1v1H19zM22 2h1v1H22zM24 2h3v1H24zM28,2 h1v1H28zM0 3h1v1H0zM2 3h3v1H2zM6 3h1v1H6zM10 3h2v1H10zM14 3h2v1H14zM17 3h1v1H17zM19 3h2v1H19zM22 3h1v1H22zM24 3h3v1H24zM28,3 h1v1H28zM0 4h1v1H0zM2 4h3v1H2zM6 4h1v1H6zM10 4h4v1H10zM15 4h1v1H15zM17 4h3v1H17zM22 4h1v1H22zM24 4h3v1H24zM28,4 h1v1H28zM0 5h1v1H0zM6 5h1v1H6zM9 5h1v1H9zM11 5h1v1H11zM13 5h2v1H13zM17 5h2v1H17zM20 5h1v1H20zM22 5h1v1H22zM28,5 h1v1H28zM0 6h7v1H0zM8 6h1v1H8zM10 6h1v1H10zM12 6h1v1H12zM14 6h1v1H14zM16 6h1v1H16zM18 6h1v1H18zM20 6h1v1H20zM22,6 h7v1H22zM8 7h2v1H8zM12 7h1v1H12zM14 7h1v1H14zM20 7h1v1H20zM0 8h2v1H0zM3 8h2v1H3zM6 8h1v1H6zM9 8h1v1H9zM12 8h6v1H12zM19 8h2v1H19zM22 8h1v1H22zM28,8 h1v1H28zM0 9h1v1H0zM3 9h1v1H3zM7 9h2v1H7zM10 9h1v1H10zM14 9h1v1H14zM17 9h3v1H17zM21 9h1v1H21zM23 9h2v1H23zM26 9h2v1H26zM0 10h1v1H0zM3 10h1v1H3zM5 10h5v1H5zM12 10h1v1H12zM14 10h1v1H14zM17 10h2v1H17zM24 10h1v1H24zM26 10h1v1H26zM0 11h2v1H0zM3 11h1v1H3zM7 11h2v1H7zM14 11h2v1H14zM17 11h1v1H17zM19 11h5v1H19zM25 11h1v1H25zM28,11 h1v1H28zM0 12h4v1H0zM6 12h5v1H6zM13 12h2v1H13zM16 12h1v1H16zM18 12h1v1H18zM20 12h1v1H20zM22 12h1v1H22zM28,12 h1v1H28zM5 13h1v1H5zM9 13h2v1H9zM12 13h1v1H12zM17 13h2v1H17zM20,13 h9v1H20zM0 14h2v1H0zM4 14h1v1H4zM6 14h3v1H6zM14 14h2v1H14zM19 14h4v1H19zM26 14h1v1H26zM28,14 h1v1H28zM0 15h3v1H0zM5 15h1v1H5zM12 15h5v1H12zM23 15h1v1H23zM26 15h1v1H26zM28,15 h1v1H28zM2 16h2v1H2zM5 16h3v1H5zM9 16h1v1H9zM11 16h2v1H11zM15 16h2v1H15zM19 16h2v1H19zM23 16h1v1H23zM25 16h1v1H25zM0 17h1v1H0zM3 17h3v1H3zM8 17h2v1H8zM11 17h1v1H11zM15 17h1v1H15zM17 17h4v1H17zM24 17h1v1H24zM26 17h2v1H26zM0 18h2v1H0zM3 18h4v1H3zM8 18h1v1H8zM12 18h4v1H12zM17 18h3v1H17zM24 18h2v1H24zM28,18 h1v1H28zM0 19h2v1H0zM3 19h2v1H3zM11 19h1v1H11zM13 19h1v1H13zM15 19h2v1H15zM25 19h2v1H25zM0 20h4v1H0zM5 20h4v1H5zM11 20h1v1H11zM13 20h1v1H13zM16 20h2v1H16zM20 20h8v1H20zM8 21h2v1H8zM12 21h2v1H12zM15 21h1v1H15zM20 21h1v1H20zM24 21h2v1H24zM0 22h7v1H0zM9 22h3v1H9zM13 22h1v1H13zM15 22h6v1H15zM22 22h1v1H22zM24 22h2v1H24zM0 23h1v1H0zM6 23h1v1H6zM10 23h4v1H10zM16 23h5v1H16zM24 23h1v1H24zM27,23 h2v1H27zM0 24h1v1H0zM2 24h3v1H2zM6 24h1v1H6zM8 24h1v1H8zM10 24h4v1H10zM16 24h1v1H16zM19 24h7v1H19zM27,24 h2v1H27zM0 25h1v1H0zM2 25h3v1H2zM6 25h1v1H6zM8 25h3v1H8zM13 25h4v1H13zM28,25 h1v1H28zM0 26h1v1H0zM2 26h3v1H2zM6 26h1v1H6zM10 26h4v1H10zM15 26h1v1H15zM18 26h2v1H18zM21 26h1v1H21zM23 26h2v1H23zM26,26 h3v1H26zM0 27h1v1H0zM6 27h1v1H6zM8 27h2v1H8zM11 27h1v1H11zM18 27h1v1H18zM21 27h1v1H21zM24 27h3v1H24zM28,27 h1v1H28zM0 28h7v1H0zM8 28h1v1H8zM10 28h1v1H10zM14 28h1v1H14zM18 28h5v1H18zM24 28h2v1H24z"></path></svg>