<svg height="320" width="320" shapeRendering="crispEdges" viewBox="0 0 29 29" xmlns="http://www.w3.org/2000/svg" style="width: 320px; height: 320px;"><path fill="#fff" d="M0,0 h29v29H0z"></path><path fill="#000" d="M0 0h7v1H0zM8 0h2v1H8zM16 0h1v1H16zM18 0h3v1H18zM22,0 h7v1H22zM0 1h1v1H0zM6 1h1v1H6zM16 1h1v1H16zM22 1h1v1H22zM28,1 h1v1H28zM0 2h1v1H0zM2 2h3v1H2zM6 2h1v1H6zM8 2h1v1H8zM11 2h3v1H11zM16 2h1v1H16zM18 2h2v1H18zM22 2h1v1H22zM24 2h3v1H24zM28,2 h1v1H28zM0 3h1v1H0zM2 3h3v1H2zM6 3h1v1H6zM8 3h2v1H8zM11 3h1v1H11zM17 3h1v1H17zM19 3h1v1H19zM22 3h1v1H22zM24 3h3v1H24zM28,3 h1v1H28zM0 4h1v1H0zM2 4h3v1H2zM6 4h1v1H6zM8 4h4v1H8zM13 4h5v1H13zM19 4h1v1H19zM22 4h1v1H22zM24 4h3v1H24zM28,4 h1v1H28zM0 5h1v1H0zM6 5h1v1H6zM9 5h1v1H9zM12 5h1v1H12zM14 5h1v1H14zM19 5h2v1H19zM22 5h1v1H22zM28,5 h1v1H28zM0 6h7v1H0zM8 6h1v1H8zM10 6h1v1H10zM12 6h1v1H12zM14 6h1v1H14zM16 6h1v1H16zM18 6h1v1H18zM20 6h1v1H20zM22,6 h7v1H22zM9 7h1v1H9zM11 7h1v1H11zM13 7h8v1H13zM0 8h4v1H0zM6 8h1v1H6zM8 8h1v1H8zM13 8h9v1H13zM24 8h3v1H24zM28,8 h1v1H28zM1 9h4v1H1zM9 9h1v1H9zM16 9h5v1H16zM22 9h3v1H22zM28,9 h1v1H28zM1 10h1v1H1zM3 10h1v1H3zM6 10h1v1H6zM14 10h1v1H14zM17 10h1v1H17zM21 10h1v1H21zM26 10h2v1H26zM0 11h1v1H0zM2 11h2v1H2zM5 11h1v1H5zM8 11h1v1H8zM11 11h6v1H11zM18 11h1v1H18zM20 11h3v1H20zM24 11h1v1H24zM28,11 h1v1H28zM4 12h1v1H4zM6 12h1v1H6zM9 12h1v1H9zM11 12h1v1H11zM15 12h5v1H15zM23 12h1v1H23zM25 12h2v1H25zM3 13h2v1H3zM8 13h4v1H8zM13 13h1v1H13zM15 13h2v1H15zM19 13h4v1H19zM26,13 h3v1H26zM0 14h2v1H0zM3 14h1v1H3zM5 14h2v1H5zM8 14h1v1H8zM10 14h1v1H10zM12 14h1v1H12zM14 14h1v1H14zM16 14h1v1H16zM18 14h3v1H18zM22 14h1v1H22zM24 14h1v1H24zM26,14 h3v1H26zM0 15h1v1H0zM2 15h2v1H2zM5 15h1v1H5zM8 15h1v1H8zM12 15h2v1H12zM15 15h2v1H15zM20 15h4v1H20zM27 15h1v1H27zM2 16h1v1H2zM4 16h1v1H4zM6 16h1v1H6zM8 16h1v1H8zM10 16h2v1H10zM18 16h4v1H18zM23 16h3v1H23zM27 16h1v1H27zM1 17h1v1H1zM7 17h3v1H7zM12 17h2v1H12zM15 17h1v1H15zM20 17h1v1H20zM23 17h1v1H23zM25 17h3v1H25zM0 18h1v1H0zM3 18h10v1H3zM15 18h1v1H15zM18 18h1v1H18zM20 18h1v1H20zM22 18h3v1H22zM26 18h1v1H26zM5 19h1v1H5zM9 19h1v1H9zM12 19h1v1H12zM15 19h5v1H15zM23 19h2v1H23zM26 19h1v1H26zM1 20h2v1H1zM5 20h9v1H5zM15 20h4v1H15zM20 20h7v1H20zM8 21h3v1H8zM12 21h3v1H12zM16 21h1v1H16zM20 21h1v1H20zM24,21 h5v1H24zM0 22h7v1H0zM9 22h1v1H9zM11 22h3v1H11zM16 22h2v1H16zM19 22h2v1H19zM22 22h1v1H22zM24 22h2v1H24zM27 22h1v1H27zM0 23h1v1H0zM6 23h1v1H6zM16 23h1v1H16zM20 23h1v1H20zM24 23h2v1H24zM27,23 h2v1H27zM0 24h1v1H0zM2 24h3v1H2zM6 24h1v1H6zM12 24h1v1H12zM14 24h2v1H14zM17 24h1v1H17zM20 24h5v1H20zM26 24h1v1H26zM0 25h1v1H0zM2 25h3v1H2zM6 25h1v1H6zM8 25h1v1H8zM10 25h3v1H10zM14 25h6v1H14zM23 25h3v1H23zM28,25 h1v1H28zM0 26h1v1H0zM2 26h3v1H2zM6 26h1v1H6zM8 26h2v1H8zM11 26h1v1H11zM13 26h1v1H13zM19 26h1v1H19zM23 26h1v1H23zM26 26h1v1H26zM28,26 h1v1H28zM0 27h1v1H0zM6 27h1v1H6zM8 27h1v1H8zM10 27h2v1H10zM14 27h3v1H14zM18 27h1v1H18zM20 27h1v1H20zM22 27h1v1H22zM24 27h2v1H24zM27 27h1v1H27zM0 28h7v1H0zM8 28h1v1H8zM10 28h1v1H10zM12 28h1v1H12zM14 28h2v1H14zM19 28h2v1H19zM22 28h1v1H22zM25 28h1v1H25zM27 28h1v1H27z"></path></svg>